<!-- source: https://icons8.com/icons/set/plus -->
<?xml version="1.0" encoding="UTF-8" standalone="no"?>
<svg
   xmlns:dc="http://purl.org/dc/elements/1.1/"
   xmlns:cc="http://creativecommons.org/ns#"
   xmlns:rdf="http://www.w3.org/1999/02/22-rdf-syntax-ns#"
   xmlns:svg="http://www.w3.org/2000/svg"
   xmlns="http://www.w3.org/2000/svg"
   xmlns:sodipodi="http://sodipodi.sourceforge.net/DTD/sodipodi-0.dtd"
   xmlns:inkscape="http://www.inkscape.org/namespaces/inkscape"
   inkscape:version="1.0 (4035a4fb49, 2020-05-01)"
   sodipodi:docname="plus.svg"
   id="svg76"
   version="1.1"
   viewBox="-100 40 680 400"
   y="0px"
   x="0px">
  <metadata
     id="metadata82">
    <rdf:RDF>
      <cc:Work
         rdf:about="">
        <dc:format>image/svg+xml</dc:format>
        <dc:type
           rdf:resource="http://purl.org/dc/dcmitype/StillImage" />
      </cc:Work>
    </rdf:RDF>
  </metadata>
  <defs
     id="defs80" />
  <sodipodi:namedview
     inkscape:current-layer="surface21037317"
     inkscape:window-maximized="1"
     inkscape:window-y="0"
     inkscape:window-x="0"
     inkscape:cy="198.88112"
     inkscape:cx="246.29371"
     inkscape:zoom="1.7875"
     inkscape:snap-global="true"
     showgrid="false"
     id="namedview78"
     inkscape:window-height="2138"
     inkscape:window-width="3840"
     inkscape:pageshadow="2"
     inkscape:pageopacity="0"
     guidetolerance="10"
     gridtolerance="10"
     objecttolerance="10"
     borderopacity="1"
     bordercolor="#666666"
     pagecolor="#ffffff" />
  <g
     id="surface21037317">
    <path
       id="path73"
       d="M 240 40 C 129.539062 40 40 129.539062 40 240 C 40 350.460938 129.539062 440 240 440 C 350.460938 440 440 350.460938 440 240 C 440 129.539062 350.460938 40 240 40 Z M 340 260 L 260 260 L 260 340 L 220 340 L 220 260 L 140 260 L 140 220 L 220 220 L 220 140 L 260 140 L 260 220 L 340 220 Z M 340 260 "
       style="stroke:none;fill-rule:nonzero;"
       fill="var(--button-color)" />
    <path
       transform="translate(-100,40)"
       id="path938"
       d="m 320.13986,259.86014 v -40 h -40 -40 V 200 180.13986 h 40 40 v -40 -40 H 340 359.86014 v 40 40 h 40 40 V 200 219.86014 h -40 -40 v 40 40 H 340 320.13986 Z"
       style="fill:#ffffff;stroke:none;stroke-width:0.559441;fill-opacity:1" />
  </g>
</svg>
