<?xml version="1.0" encoding="UTF-8" standalone="no"?>
<svg xmlns="http://www.w3.org/2000/svg" xmlns:xlink="http://www.w3.org/1999/xlink" y="0px" x="0px" viewBox="0 0 1024 721" enable-background="new 0 0 1024 721" xml:space="preserve">
	<g id="Lozenge">
		<g>
			<path id="path883" d="m 1013,156.3 c 0,0 -10,-70.4 -40.6,-101.4 C 933.6,14.2 890,14 870.1,11.6 727.1,1.3 512.7,1.3 512.7,1.3 h -0.4 c 0,0 -214.4,0 -357.4,10.3 C 135,14 91.4,14.2 52.6,54.9 22,85.9 12,156.3 12,156.3 c 0,0 -10.2,82.6 -10.2,165.3 v 77.5 c 0,82.7 10.2,165.3 10.2,165.3 0,0 10,70.4 40.6,101.4 38.9,40.7 89.9,39.4 112.6,43.7 81.7,7.8 347.3,10.3 347.3,10.3 0,0 214.6,-0.3 357.6,-10.7 20,-2.4 63.5,-2.6 102.3,-43.3 30.6,-31 40.6,-101.4 40.6,-101.4 0,0 10.2,-82.7 10.2,-165.3 v -77.5 c 0,-82.7 -10.2,-165.3 -10.2,-165.3 z" fill="var(--button-color)" />
		</g>
	</g>
	<path id="plus" d="M 470.92408,479.13795 V 399.02591 H 390.81205 310.7 V 359.25 319.47409 h 80.11205 80.11203 V 239.36205 159.25 H 510.7 550.47592 v 80.11205 80.11204 H 630.58796 710.7 V 359.25 399.02591 H 630.58796 550.47592 V 479.13795 559.25 H 510.7 470.92408 Z" style="fill:#ffffff;fill-opacity:1;stroke:none;stroke-width:1.12044" />
</svg>
